<?xml version="1.0" standalone="no"?>
<!DOCTYPE svg PUBLIC "-//W3C//DTD SVG 20010904//EN"
 "http://www.w3.org/TR/2001/REC-SVG-20010904/DTD/svg10.dtd">
<svg version="1.0" xmlns="http://www.w3.org/2000/svg"
 width="200.000000pt" height="200.000000pt" viewBox="0 0 200.000000 200.000000"
 preserveAspectRatio="xMidYMid meet">

<g transform="translate(0.000000,200.000000) scale(0.100000,-0.100000)"
fill="#000000" stroke="none">
<path d="M667 1592 c9 -6 7 -11 -7 -20 -16 -10 -18 -9 -14 3 3 8 -14 -4 -39
-28 -25 -23 -46 -47 -48 -52 -2 -6 -12 -3 -21 7 -17 17 -17 18 3 18 11 0 17 4
14 11 -5 7 -15 4 -32 -7 -21 -13 -27 -14 -34 -3 -8 13 -13 5 -10 -13 1 -10
-11 -10 -28 1 -11 7 -10 11 7 20 11 6 30 11 41 11 11 0 23 5 26 10 10 16 -52
12 -85 -5 -17 -9 -30 -20 -30 -25 0 -6 -9 -10 -20 -10 -12 0 -32 -11 -46 -25
-15 -15 -31 -22 -42 -19 -11 4 -9 -1 7 -14 14 -11 31 -18 38 -15 7 3 13 0 13
-6 0 -6 -8 -11 -17 -11 -14 0 -15 -2 -5 -9 11 -6 10 -10 -4 -15 -10 -4 -20 -3
-22 2 -1 5 -10 18 -18 28 -14 18 -15 18 -9 -3 5 -17 2 -23 -8 -23 -9 0 -18 -6
-20 -12 -3 -7 -6 -4 -6 6 -1 11 -3 17 -6 14 -16 -15 11 -61 52 -88 44 -30 68
-37 75 -22 4 11 122 97 129 95 3 -1 28 5 54 13 63 18 178 18 243 -1 l52 -16
-39 -57 c-58 -87 -83 -162 -89 -273 -3 -61 0 -117 8 -150 16 -67 62 -172 96
-216 l25 -33 -28 -12 c-40 -18 -262 -17 -296 1 -14 7 -37 11 -51 9 -14 -3 -23
-1 -20 3 7 11 -33 49 -52 49 -8 0 -13 3 -11 8 6 11 -31 43 -38 32 -4 -6 -2
-10 3 -10 6 0 12 -6 15 -14 5 -12 1 -13 -26 -1 -21 8 -40 10 -56 4 -20 -8 -22
-11 -10 -26 8 -10 9 -14 2 -10 -6 4 -15 3 -18 -3 -4 -6 -15 -8 -26 -5 -13 5
-19 2 -19 -10 0 -28 32 -65 95 -111 116 -82 220 -115 365 -115 104 1 182 17
267 57 l55 26 66 -30 c37 -17 87 -36 112 -41 65 -15 236 -13 298 3 76 21 179
71 240 118 64 49 81 75 50 74 -12 -1 -23 6 -25 14 -4 13 -3 13 6 0 8 -11 11
-12 11 -2 0 9 7 11 23 7 42 -12 -23 34 -68 47 -22 7 -43 16 -46 20 -7 11 -85
-28 -92 -47 -4 -8 -13 -15 -21 -15 -8 0 -28 -12 -45 -26 -21 -18 -37 -23 -51
-19 -12 4 -27 1 -35 -5 -17 -14 -145 -20 -145 -7 0 4 -10 8 -22 6 -13 -1 -42
6 -65 16 l-41 17 38 60 c63 97 85 174 85 303 0 130 -23 210 -86 303 l-38 57
32 14 c18 8 73 16 123 19 107 5 174 -11 249 -60 28 -17 55 -31 61 -30 7 1 14
-6 17 -17 4 -17 10 -18 33 -12 16 5 28 13 27 20 -2 6 6 11 18 11 11 0 29 5 40
11 19 10 20 11 3 23 -13 10 -14 15 -4 21 8 5 11 4 6 -3 -4 -6 1 -10 13 -9 23
1 16 24 -10 32 -11 4 -17 11 -14 16 4 5 1 9 -4 9 -6 0 -11 -7 -11 -15 0 -9 -9
-15 -21 -15 -16 0 -20 5 -16 20 3 13 0 20 -9 20 -8 0 -14 9 -14 20 0 25 16 26
29 3 6 -10 11 -13 11 -7 0 23 -25 33 -62 25 -32 -8 -37 -6 -43 13 -4 11 -7 24
-6 29 1 4 -4 7 -9 7 -6 0 -10 -4 -10 -10 0 -5 -7 -10 -16 -10 -8 0 -12 5 -9
10 3 6 -1 10 -9 10 -9 0 -16 -4 -16 -10 0 -5 -13 -8 -29 -7 -27 2 -28 4 -15
18 14 15 13 17 -3 15 -10 0 -20 -4 -23 -8 -3 -3 -14 0 -25 8 -19 14 -19 15 4
12 13 -2 26 3 28 10 4 9 -5 12 -31 10 -20 -1 -41 3 -48 10 -31 31 -219 5 -330
-45 l-59 -26 -47 22 c-26 11 -65 24 -87 27 -22 4 -45 7 -52 8 -7 1 -16 5 -19
9 -4 4 -12 7 -18 7 -5 0 -1 -7 10 -15 18 -14 18 -14 -4 -15 -13 0 -20 -4 -17
-10 3 -5 1 -10 -4 -10 -6 0 -11 14 -11 30 0 29 -1 30 -47 30 -27 0 -43 -4 -36
-8z m68 -21 c3 -5 1 -12 -5 -16 -5 -3 -10 1 -10 9 0 18 6 21 15 7z m-95 -39
c0 -5 -7 -17 -15 -28 -11 -14 -15 -16 -15 -4 0 12 -4 10 -15 -4 -8 -11 -15
-15 -15 -10 0 6 9 20 20 32 21 22 40 29 40 14z m40 -12 c0 -5 -2 -10 -4 -10
-3 0 -8 5 -11 10 -3 6 -1 10 4 10 6 0 11 -4 11 -10z m-170 -29 c0 -6 -4 -13
-10 -16 -5 -3 -10 1 -10 9 0 9 5 16 10 16 6 0 10 -4 10 -9z m-126 -16 c-10 -8
-23 -14 -29 -14 -5 0 -1 6 9 14 11 8 24 15 30 15 5 0 1 -7 -10 -15z m76 0 c7
-9 10 -18 7 -21 -10 -11 -37 5 -37 21 0 19 14 19 30 0z m-55 -26 c-4 -5 -1 -9
6 -9 7 0 9 -3 6 -6 -9 -9 -38 16 -31 27 3 5 10 7 15 3 5 -3 7 -10 4 -15z
m1250 11 c4 -6 -1 -7 -12 -3 -16 6 -16 5 -4 -10 12 -15 11 -17 -7 -14 -12 2
-25 7 -29 12 -5 4 -3 5 3 2 7 -4 14 0 18 8 6 17 22 20 31 5z m25 -40 c0 -5 -4
-10 -10 -10 -5 0 -10 5 -10 10 0 6 5 10 10 10 6 0 10 -4 10 -10z m-47 -27 c-3
-7 -6 -13 -8 -13 -2 0 -5 6 -8 13 -3 8 1 14 8 14 7 0 11 -6 8 -14z m-1339 -9
c9 -3 16 -13 16 -21 0 -9 -6 -13 -15 -9 -8 3 -15 1 -15 -5 0 -6 -4 -7 -10 -4
-12 7 -14 26 -2 24 19 -3 25 2 12 11 -17 11 -10 13 14 4z m1423 -16 c-3 -8 -6
-5 -6 6 -1 11 2 17 5 13 3 -3 4 -12 1 -19z m-1327 2 c0 -5 -4 -10 -10 -10 -5
0 -10 5 -10 10 0 6 5 10 10 10 6 0 10 -4 10 -10z m660 -175 c33 -65 35 -73 35
-170 0 -97 -2 -105 -35 -170 -19 -38 -40 -70 -47 -72 -15 -5 -56 59 -77 121
-20 58 -21 167 -2 229 18 61 64 139 79 134 7 -2 28 -34 47 -72z m-720 -495 c0
-5 -4 -10 -9 -10 -6 0 -13 5 -16 10 -3 6 1 10 9 10 9 0 16 -4 16 -10z m1340
-10 c0 -5 -2 -10 -4 -10 -3 0 -8 5 -11 10 -3 6 -1 10 4 10 6 0 11 -4 11 -10z
m70 6 c0 -3 -4 -8 -10 -11 -5 -3 -10 -1 -10 4 0 6 5 11 10 11 6 0 10 -2 10 -4z
m-1305 -36 c-3 -5 -14 -10 -23 -9 -14 0 -13 2 3 9 27 11 27 11 20 0z m1111
-26 c-9 -9 -20 -14 -23 -10 -4 3 2 13 13 20 25 18 31 12 10 -10z"/>
<path d="M552 1564 c-7 -8 -8 -14 -3 -14 10 0 25 19 20 25 -2 1 -10 -3 -17
-11z"/>
<path d="M1626 1075 c-3 -8 -1 -15 4 -15 6 0 10 7 10 15 0 8 -2 15 -4 15 -2 0
-6 -7 -10 -15z"/>
<path d="M365 1000 c-4 -6 -1 -9 7 -8 7 2 12 -2 11 -9 -2 -7 4 -10 12 -7 12 5
12 8 0 20 -16 17 -22 17 -30 4z"/>
<path d="M1656 961 c-3 -5 1 -14 8 -20 18 -15 28 0 10 16 -7 7 -15 9 -18 4z"/>
<path d="M314 879 c-3 -5 2 -9 10 -9 13 0 14 -4 4 -25 -7 -15 -17 -24 -25 -21
-7 3 -13 3 -13 1 0 -9 70 -37 82 -32 8 4 7 6 -4 6 -21 1 -21 3 -6 35 9 22 14
24 26 13 12 -10 14 -9 11 2 -6 16 -77 42 -85 30z"/>
<path d="M1589 839 c-11 -8 -10 -9 5 -7 14 2 19 -4 22 -25 2 -22 -1 -27 -12
-23 -8 3 -14 1 -14 -4 0 -12 79 -10 86 2 4 6 -1 8 -12 4 -16 -5 -19 0 -20 24
-1 27 2 30 20 24 12 -4 18 -3 14 1 -11 12 -73 14 -89 4z m51 -29 c0 -5 -4 -10
-10 -10 -5 0 -10 5 -10 10 0 6 5 10 10 10 6 0 10 -4 10 -10z"/>
</g>
</svg>
