<?xml version="1.0" standalone="no"?>
<!DOCTYPE svg PUBLIC "-//W3C//DTD SVG 20010904//EN"
 "http://www.w3.org/TR/2001/REC-SVG-20010904/DTD/svg10.dtd">
<svg version="1.0" xmlns="http://www.w3.org/2000/svg"
 width="840.000000pt" height="859.000000pt" viewBox="0 0 840.000000 859.000000"
 preserveAspectRatio="xMidYMid meet">

<g transform="translate(0.000000,859.000000) scale(0.100000,-0.100000)"
fill="#000000" stroke="none">
<path d="M770 6860 c0 -11 -4 -20 -10 -20 -6 0 -10 -30 -10 -69 0 -39 -4 -73
-10 -76 -6 -4 -10 -82 -10 -200 0 -118 4 -196 10 -200 6 -3 10 -31 10 -61 0
-30 5 -54 10 -54 6 0 10 -18 10 -40 0 -22 5 -40 10 -40 6 0 10 -13 10 -30 0
-16 4 -30 8 -30 4 0 14 -20 21 -45 7 -25 16 -45 20 -45 3 0 12 -14 20 -31 7
-17 29 -46 47 -65 19 -18 34 -36 34 -39 0 -7 128 -135 135 -135 3 0 21 -15 39
-32 18 -18 54 -51 81 -73 58 -49 179 -169 220 -219 17 -20 45 -53 63 -73 17
-20 32 -43 32 -50 0 -7 5 -13 10 -13 6 0 10 -5 10 -10 0 -6 11 -22 25 -36 14
-14 25 -29 25 -33 0 -7 11 -22 50 -68 5 -7 10 -17 10 -23 0 -5 5 -10 10 -10 6
0 10 -8 10 -18 0 -10 9 -24 20 -32 11 -8 20 -22 20 -32 0 -10 5 -18 10 -18 6
0 10 -9 10 -20 0 -11 3 -20 8 -20 4 0 12 -10 18 -23 6 -12 32 -60 58 -106 25
-47 46 -90 46 -98 0 -7 5 -13 10 -13 6 0 10 -9 10 -20 0 -11 5 -20 10 -20 6 0
10 -9 10 -20 0 -11 5 -20 10 -20 6 0 10 -11 10 -24 0 -14 5 -28 10 -31 6 -3
10 -15 10 -26 0 -10 4 -19 8 -19 4 0 14 -17 20 -37 13 -37 56 -142 73 -175 5
-10 9 -25 9 -33 0 -8 5 -15 10 -15 6 0 10 -13 10 -30 0 -16 5 -30 10 -30 6 0
10 -13 10 -30 0 -16 5 -30 10 -30 6 0 10 -13 10 -29 0 -17 5 -33 10 -36 6 -3
10 -15 10 -26 0 -10 4 -27 9 -37 13 -26 61 -226 61 -256 0 -14 4 -26 9 -26 5
0 12 -24 15 -52 10 -97 18 -143 27 -153 5 -5 9 -31 9 -57 0 -26 5 -48 10 -48
6 0 10 -15 10 -34 0 -19 5 -38 10 -41 6 -3 10 -17 10 -31 0 -13 4 -32 9 -42 5
-9 14 -30 21 -47 26 -62 45 -100 57 -112 6 -7 15 -22 18 -33 3 -11 11 -20 16
-20 5 0 9 -6 9 -13 0 -7 9 -19 20 -27 11 -8 20 -18 20 -22 0 -16 194 -198 210
-198 6 0 10 -4 10 -10 0 -5 7 -10 15 -10 8 0 15 -4 15 -10 0 -5 7 -10 15 -10
8 0 15 -4 15 -10 0 -5 7 -10 15 -10 8 0 15 -4 15 -10 0 -5 6 -10 14 -10 8 0
16 -3 18 -8 4 -9 126 -82 139 -82 5 0 9 -4 9 -10 0 -5 9 -10 20 -10 11 0 20
-4 20 -10 0 -5 9 -10 20 -10 11 0 20 -4 20 -10 0 -5 9 -10 20 -10 11 0 20 -4
20 -10 0 -5 7 -10 15 -10 8 0 15 -4 15 -10 0 -5 9 -10 20 -10 11 0 20 -4 20
-10 0 -5 9 -10 20 -10 11 0 20 -4 20 -10 0 -5 8 -10 19 -10 10 0 23 -6 29 -13
6 -7 27 -19 47 -27 19 -7 35 -17 35 -22 0 -4 9 -8 20 -8 11 0 20 -4 20 -10 0
-5 9 -10 20 -10 11 0 20 -4 20 -10 0 -5 9 -10 20 -10 11 0 20 -4 20 -10 0 -5
9 -10 20 -10 11 0 20 -4 20 -10 0 -5 7 -10 15 -10 8 0 15 -3 15 -7 0 -5 18
-17 40 -27 22 -11 40 -23 40 -28 0 -4 6 -8 14 -8 8 0 16 -6 19 -14 4 -11 -1
-12 -26 -5 -267 69 -267 69 -401 69 -72 0 -136 -4 -143 -8 -7 -4 23 -15 73
-26 46 -11 87 -23 90 -27 3 -5 18 -9 34 -9 16 0 32 -4 35 -10 3 -5 17 -10 30
-10 13 0 27 -4 30 -10 3 -5 17 -10 31 -10 13 0 24 -4 24 -10 0 -5 14 -10 30
-10 17 0 30 -4 30 -10 0 -5 11 -10 25 -10 14 0 25 -4 25 -10 0 -5 7 -10 14
-10 18 0 170 -72 174 -82 2 -5 12 -8 23 -8 10 0 19 -4 19 -10 0 -5 8 -10 18
-10 10 0 24 -9 32 -20 8 -11 22 -20 32 -20 10 0 18 -4 18 -10 0 -5 7 -10 15
-10 8 0 15 -4 15 -10 0 -5 6 -10 13 -10 7 0 22 -8 33 -18 10 -9 40 -31 66 -47
27 -17 48 -33 48 -37 0 -5 6 -8 13 -8 7 0 19 -9 27 -20 8 -11 21 -20 28 -20
14 0 82 -67 82 -81 0 -4 9 -9 20 -12 16 -4 20 -1 16 11 -7 22 -26 109 -33 150
-3 18 -9 35 -14 38 -5 3 -9 16 -9 29 0 13 -4 27 -10 30 -5 3 -10 15 -10 26 0
10 -4 19 -10 19 -5 0 -10 9 -10 20 0 11 -4 20 -10 20 -5 0 -10 7 -10 15 0 15
-37 86 -50 95 -3 3 -11 12 -16 21 -13 23 -75 98 -102 123 -12 11 -38 36 -57
54 -19 17 -39 32 -45 32 -5 0 -10 4 -10 9 0 5 -9 13 -20 16 -11 3 -26 12 -32
18 -21 20 -97 67 -108 67 -5 0 -10 5 -10 10 0 6 -9 10 -20 10 -11 0 -20 5 -20
10 0 6 -9 10 -20 10 -11 0 -20 5 -20 10 0 6 -9 10 -20 10 -11 0 -20 5 -20 10
0 6 -7 10 -15 10 -8 0 -15 5 -15 10 0 6 -9 10 -19 10 -11 0 -21 3 -23 8 -1 4
-28 20 -58 36 -30 16 -57 32 -60 35 -3 3 -17 12 -32 20 -15 8 -37 22 -47 33
-11 10 -25 18 -31 18 -6 0 -21 10 -34 23 -13 12 -53 48 -90 81 -36 32 -66 62
-66 67 0 5 -18 28 -40 50 -22 23 -40 48 -40 55 0 8 -4 14 -10 14 -5 0 -10 6
-10 14 0 8 -4 16 -8 18 -12 4 -82 137 -82 154 0 8 -4 14 -10 14 -5 0 -10 14
-10 30 0 17 -4 30 -10 30 -5 0 -10 16 -10 35 0 19 -4 35 -9 35 -5 0 -12 19
-15 43 -3 23 -10 71 -16 107 -6 36 -15 157 -20 270 -12 238 -36 547 -50 640
-6 36 -13 82 -16 103 -4 20 -10 37 -15 37 -5 0 -9 14 -9 30 0 17 -4 30 -10 30
-5 0 -10 14 -10 30 0 17 -4 30 -10 30 -5 0 -10 14 -10 30 0 17 -4 30 -10 30
-5 0 -10 11 -10 24 0 13 -3 26 -7 28 -5 2 -26 39 -47 83 -22 44 -42 82 -45 85
-3 3 -12 17 -20 33 -8 15 -18 27 -23 27 -4 0 -8 7 -8 16 0 8 -6 21 -12 29 -7
7 -26 30 -43 50 -16 20 -54 61 -82 91 -29 29 -53 58 -53 64 0 5 -4 10 -9 10
-4 0 -22 14 -39 30 -18 17 -36 30 -42 30 -5 0 -10 5 -10 10 0 6 -5 10 -10 10
-6 0 -26 15 -44 33 -50 47 -89 77 -103 77 -7 0 -13 5 -13 10 0 6 -7 10 -15 10
-8 0 -15 5 -15 10 0 6 -7 10 -15 10 -8 0 -15 5 -15 10 0 6 -7 10 -15 10 -8 0
-15 5 -15 10 0 6 -5 10 -10 10 -12 0 -153 92 -158 103 -2 4 -12 7 -23 7 -10 0
-19 5 -19 10 0 6 -7 10 -15 10 -8 0 -15 5 -15 10 0 6 -7 10 -15 10 -8 0 -15 5
-15 10 0 6 -7 10 -15 10 -8 0 -15 5 -15 10 0 6 -7 10 -16 10 -9 0 -24 8 -33
19 -9 10 -31 26 -49 35 -31 16 -58 35 -87 64 -8 6 -18 12 -24 12 -6 0 -25 14
-43 30 -17 17 -35 30 -41 30 -5 0 -17 8 -26 18 -9 10 -38 36 -66 57 -63 51
-119 107 -170 170 -21 28 -47 57 -57 66 -10 9 -18 23 -18 30 0 8 -9 21 -20 29
-11 8 -20 22 -20 31 0 10 -3 19 -7 21 -13 5 -83 157 -83 178 0 10 -4 22 -10
25 -5 3 -10 22 -10 41 0 19 -4 34 -10 34 -6 0 -10 52 -10 135 0 83 -4 135 -10
135 -5 0 -10 -9 -10 -20z"/>
<path d="M7660 6775 c0 -50 -4 -85 -10 -85 -5 0 -10 -25 -10 -55 0 -30 -4 -55
-10 -55 -5 0 -10 -14 -10 -30 0 -17 -4 -38 -9 -48 -4 -9 -27 -55 -49 -102 -50
-103 -71 -140 -94 -161 -10 -9 -18 -21 -18 -28 0 -6 -4 -11 -10 -11 -5 0 -10
-5 -10 -11 0 -18 -249 -259 -268 -259 -4 0 -14 -9 -22 -20 -8 -11 -20 -20 -27
-20 -7 0 -13 -4 -13 -10 0 -5 -6 -10 -13 -10 -7 0 -19 -9 -27 -20 -8 -11 -18
-20 -23 -20 -5 0 -38 -20 -73 -45 -34 -25 -65 -45 -69 -45 -3 0 -15 -9 -27
-20 -12 -11 -28 -20 -35 -20 -7 0 -13 -4 -13 -10 0 -5 -7 -10 -15 -10 -8 0
-15 -4 -15 -10 0 -5 -9 -10 -20 -10 -11 0 -20 -4 -20 -9 0 -5 -13 -14 -30 -21
-16 -7 -30 -16 -30 -20 0 -4 -18 -15 -40 -26 -22 -10 -40 -22 -40 -26 0 -5 -7
-8 -15 -8 -8 0 -15 -4 -15 -10 0 -5 -8 -10 -18 -10 -10 0 -24 -9 -32 -20 -8
-11 -21 -20 -30 -20 -9 0 -22 -9 -30 -20 -8 -11 -18 -20 -23 -20 -4 0 -13 -5
-20 -10 -46 -39 -61 -50 -68 -50 -5 0 -24 -16 -43 -35 -20 -19 -38 -35 -41
-35 -3 0 -36 -29 -73 -65 -37 -36 -70 -69 -75 -73 -29 -27 -88 -100 -93 -114
-3 -10 -10 -18 -15 -18 -5 0 -9 -6 -9 -13 0 -7 -9 -19 -20 -27 -11 -8 -20 -22
-20 -32 0 -10 -4 -18 -10 -18 -5 0 -10 -9 -10 -20 0 -11 -4 -20 -8 -20 -9 0
-82 -135 -82 -151 0 -5 -9 -29 -20 -51 -11 -23 -20 -50 -20 -60 0 -10 -4 -18
-10 -18 -5 0 -10 -13 -10 -30 0 -16 -4 -30 -10 -30 -5 0 -10 -18 -10 -40 0
-22 -4 -40 -10 -40 -5 0 -10 -20 -10 -45 0 -25 -4 -45 -9 -45 -9 0 -15 -42
-26 -177 -2 -32 -9 -186 -16 -343 -7 -194 -17 -320 -31 -395 -10 -60 -22 -127
-25 -147 -3 -21 -9 -38 -14 -38 -5 0 -9 -13 -9 -30 0 -16 -4 -30 -10 -30 -5 0
-10 -11 -10 -25 0 -14 -4 -25 -10 -25 -5 0 -10 -11 -10 -25 0 -14 -4 -25 -10
-25 -5 0 -10 -11 -10 -25 0 -14 -4 -25 -9 -25 -5 0 -14 -13 -21 -30 -7 -17
-16 -30 -21 -30 -4 0 -10 -8 -13 -17 -3 -10 -19 -34 -36 -53 -16 -19 -30 -39
-30 -43 0 -11 -124 -132 -170 -166 -19 -14 -42 -34 -51 -43 -9 -10 -24 -18
-33 -18 -9 0 -16 -4 -16 -8 0 -5 -25 -22 -55 -37 -30 -16 -55 -32 -55 -35 0
-4 -24 -17 -52 -31 -29 -13 -54 -27 -56 -31 -2 -5 -12 -8 -23 -8 -10 0 -19 -4
-19 -10 0 -5 -9 -10 -20 -10 -11 0 -20 -4 -20 -10 0 -5 -9 -10 -20 -10 -11 0
-20 -4 -20 -10 0 -5 -4 -10 -9 -10 -12 0 -121 -66 -149 -90 -12 -11 -27 -20
-32 -20 -6 0 -10 -4 -10 -10 0 -5 -7 -10 -15 -10 -8 0 -15 -4 -15 -10 0 -5 -5
-10 -10 -10 -11 0 -120 -105 -120 -115 0 -3 -10 -17 -22 -30 -34 -36 -44 -49
-58 -76 -7 -13 -16 -26 -19 -29 -13 -11 -51 -93 -51 -111 0 -10 -4 -19 -10
-19 -5 0 -10 -11 -10 -25 0 -14 -4 -25 -10 -25 -5 0 -10 -11 -10 -25 0 -14 -4
-33 -9 -43 -29 -57 -43 -172 -21 -172 6 0 10 6 10 13 0 7 10 19 21 27 12 8 37
30 55 48 18 17 38 32 44 32 5 0 10 4 10 8 0 5 12 15 27 23 16 8 37 22 48 32
28 25 94 67 105 67 6 0 10 5 10 10 0 6 7 10 15 10 8 0 15 5 15 10 0 6 7 10 15
10 8 0 15 5 15 10 0 6 9 10 20 10 11 0 20 4 20 9 0 5 8 11 18 15 9 3 49 23 87
45 39 22 78 41 88 41 9 0 17 5 17 10 0 6 7 10 15 10 15 0 25 4 72 28 13 7 32
12 43 12 11 0 20 5 20 10 0 6 14 10 30 10 17 0 30 5 30 10 0 6 13 10 29 10 17
0 32 4 35 9 3 5 20 11 38 14 56 9 198 51 198 59 0 15 -238 13 -305 -2 -22 -5
-76 -17 -120 -26 -44 -9 -84 -21 -89 -26 -14 -11 -56 -10 -56 2 0 6 4 10 9 10
5 0 16 6 23 14 8 7 43 28 78 47 36 19 67 37 68 42 2 4 10 7 18 7 8 0 14 5 14
10 0 6 9 10 20 10 11 0 20 5 20 10 0 6 6 10 14 10 8 0 47 18 87 41 41 22 82
43 92 46 9 3 17 9 17 14 0 5 9 9 19 9 11 0 23 5 26 10 3 6 15 10 26 10 10 0
19 5 19 10 0 6 9 10 20 10 11 0 20 4 20 8 0 5 16 14 35 22 19 8 35 16 35 19 0
3 18 15 40 25 22 11 40 22 40 26 0 3 22 17 50 31 27 13 50 27 50 32 0 4 7 7
15 7 8 0 15 5 15 10 0 6 7 10 15 10 8 0 15 5 15 10 0 6 5 10 10 10 6 0 22 11
36 25 14 14 28 25 32 25 12 0 182 167 182 179 0 6 5 11 10 11 6 0 10 7 10 15
0 8 4 15 8 15 5 0 17 16 28 35 10 19 22 35 26 35 5 0 8 9 8 20 0 11 5 20 10
20 6 0 10 9 10 20 0 11 5 20 10 20 6 0 10 11 10 25 0 14 5 25 10 25 6 0 10 14
10 30 0 17 5 30 10 30 6 0 10 20 10 45 0 25 5 45 10 45 6 0 10 18 10 40 0 22
5 40 10 40 6 0 10 19 10 42 0 23 4 55 9 72 14 45 51 215 58 261 3 22 9 48 14
57 5 9 9 28 9 42 0 14 5 28 10 31 6 3 10 19 10 36 0 16 5 29 10 29 6 0 10 14
10 30 0 17 5 30 10 30 6 0 10 13 10 28 0 15 4 32 10 38 5 5 11 22 12 37 1 15
5 27 8 27 3 0 11 18 18 40 7 23 24 64 37 92 14 29 25 56 25 60 0 5 9 28 20 50
11 23 20 48 20 55 0 7 5 13 10 13 6 0 10 11 10 25 0 14 5 25 10 25 6 0 10 9
10 20 0 11 5 20 10 20 6 0 10 6 10 13 0 8 23 56 51 108 27 52 53 102 56 112 3
9 9 17 14 17 5 0 9 9 9 20 0 11 5 20 10 20 6 0 10 7 10 15 0 8 5 15 10 15 6 0
10 9 10 20 0 11 5 20 10 20 6 0 10 5 10 10 0 11 47 87 67 108 7 7 13 17 13 22
0 5 11 20 25 34 14 14 25 30 25 35 0 10 18 35 46 65 6 6 15 18 20 27 13 24 74
98 112 136 17 18 32 35 32 38 0 7 68 75 75 75 3 0 20 14 38 30 51 48 111 102
162 145 128 107 255 268 255 320 0 8 5 15 10 15 6 0 10 14 10 30 0 17 5 30 10
30 6 0 10 13 10 28 0 15 4 32 9 38 11 11 18 60 33 216 11 110 6 228 -18 446
-9 81 -24 61 -24 -33z"/>
<path d="M133 6575 c-4 -11 -7 -85 -7 -165 2 -139 11 -221 35 -320 6 -25 13
-62 16 -83 3 -20 9 -40 14 -43 5 -3 9 -16 9 -30 0 -13 5 -24 10 -24 6 0 10
-13 10 -30 0 -16 5 -30 10 -30 6 0 10 -9 10 -19 0 -22 89 -204 102 -209 4 -2
8 -10 8 -18 0 -8 5 -14 10 -14 6 0 10 -7 10 -15 0 -8 5 -15 10 -15 6 0 10 -7
10 -15 0 -8 5 -15 10 -15 6 0 10 -7 10 -16 0 -9 12 -28 28 -42 15 -15 39 -43
53 -62 38 -50 126 -138 184 -185 28 -21 57 -47 66 -57 9 -10 23 -18 30 -18 8
0 21 -9 29 -20 8 -11 20 -20 27 -20 7 0 13 -4 13 -10 0 -5 5 -10 10 -10 6 0
33 -15 60 -34 27 -19 63 -40 80 -47 16 -8 30 -17 30 -21 0 -5 9 -8 20 -8 11 0
20 -4 20 -10 0 -5 9 -10 20 -10 11 0 20 -4 20 -10 0 -5 7 -10 15 -10 8 0 15
-4 15 -10 0 -5 9 -10 20 -10 11 0 20 -4 20 -10 0 -5 6 -10 14 -10 15 0 105
-48 124 -66 6 -7 21 -16 32 -19 11 -3 20 -11 20 -16 0 -5 7 -9 15 -9 8 0 15
-4 15 -10 0 -5 7 -10 15 -10 8 0 15 -4 15 -10 0 -5 7 -10 15 -10 8 0 15 -4 15
-8 0 -4 14 -16 32 -26 17 -11 58 -45 90 -78 33 -32 64 -58 69 -58 5 0 9 -4 9
-8 0 -5 11 -15 25 -22 14 -7 25 -17 25 -22 0 -5 19 -28 43 -52 23 -24 50 -54
59 -67 27 -35 34 -14 14 39 -10 26 -24 62 -30 80 -6 17 -14 32 -18 32 -5 0 -8
9 -8 19 0 11 -4 23 -10 26 -5 3 -10 15 -10 26 0 10 -4 19 -10 19 -5 0 -10 9
-10 20 0 11 -4 20 -10 20 -5 0 -10 9 -10 20 0 11 -4 20 -10 20 -5 0 -10 7 -10
15 0 9 -9 25 -20 37 -11 12 -20 28 -20 35 0 7 -4 13 -10 13 -5 0 -10 4 -10 10
0 12 -43 78 -70 107 -11 12 -20 27 -20 33 0 5 -4 10 -10 10 -5 0 -10 6 -10 13
0 7 -9 19 -20 27 -11 8 -20 18 -20 23 0 4 -10 19 -22 33 -53 58 -298 301 -333
329 -20 17 -43 36 -50 43 -8 6 -18 12 -24 12 -6 0 -11 5 -11 10 0 6 -5 10 -10
10 -6 0 -22 11 -36 25 -14 14 -29 25 -33 25 -5 0 -23 14 -41 30 -18 17 -35 30
-40 30 -4 0 -21 14 -38 30 -18 17 -37 30 -43 30 -6 0 -24 14 -39 30 -15 17
-31 30 -34 30 -19 0 -306 284 -306 303 0 7 -9 19 -20 27 -11 8 -20 19 -20 25
0 6 -8 20 -17 31 -10 11 -24 31 -32 45 -57 96 -81 143 -81 155 0 8 -4 14 -10
14 -5 0 -10 11 -10 25 0 14 -4 25 -10 25 -5 0 -10 11 -10 25 0 14 -4 25 -10
25 -5 0 -10 18 -10 39 0 22 -4 43 -10 46 -5 3 -10 18 -10 33 0 15 -4 34 -10
42 -7 12 -10 11 -17 -5z"/>
<path d="M8280 6548 c-6 -24 -16 -57 -21 -74 -5 -17 -9 -40 -9 -52 0 -12 -4
-22 -10 -22 -5 0 -10 -9 -10 -20 0 -11 -4 -20 -10 -20 -5 0 -10 -11 -10 -25 0
-14 -4 -25 -10 -25 -5 0 -10 -9 -10 -20 0 -11 -4 -20 -10 -20 -5 0 -10 -9 -10
-20 0 -11 -4 -20 -10 -20 -5 0 -10 -9 -10 -20 0 -11 -4 -20 -10 -20 -5 0 -10
-5 -10 -10 0 -14 -50 -91 -72 -111 -10 -9 -18 -23 -18 -30 0 -8 -9 -21 -20
-29 -11 -8 -20 -18 -20 -22 0 -5 -20 -29 -45 -54 -25 -24 -45 -49 -45 -54 0
-6 -4 -10 -9 -10 -5 0 -31 -21 -58 -47 -76 -73 -112 -103 -123 -103 -5 0 -10
-4 -10 -10 0 -5 -5 -10 -11 -10 -6 0 -24 -13 -39 -30 -15 -16 -34 -30 -40 -30
-7 0 -20 -8 -29 -18 -9 -10 -34 -31 -56 -48 -22 -16 -46 -35 -53 -41 -7 -7
-17 -13 -22 -13 -5 0 -20 -11 -34 -25 -14 -14 -28 -25 -30 -25 -8 0 -51 -37
-102 -87 -24 -24 -48 -43 -54 -43 -5 0 -10 -4 -10 -10 0 -5 -4 -10 -9 -10 -9
0 -131 -117 -131 -126 0 -3 -11 -17 -25 -32 -14 -15 -40 -43 -58 -63 -19 -20
-47 -53 -63 -75 -16 -21 -37 -46 -46 -55 -10 -9 -18 -23 -18 -32 0 -8 -4 -17
-9 -19 -11 -4 -101 -144 -101 -157 0 -6 -4 -11 -10 -11 -5 0 -10 -9 -10 -20 0
-11 -4 -20 -10 -20 -5 0 -10 -9 -10 -20 0 -11 -4 -20 -10 -20 -5 0 -10 -9 -10
-20 0 -11 -4 -20 -10 -20 -5 0 -10 -11 -10 -25 0 -14 -4 -25 -10 -25 -5 0 -10
-9 -10 -20 0 -11 -4 -20 -10 -20 -5 0 -10 -7 -10 -15 0 -8 -11 -39 -24 -70
-28 -61 -18 -84 17 -40 29 37 175 185 182 185 3 0 26 19 50 43 73 70 94 87
102 87 5 0 15 9 23 20 8 11 21 20 30 20 9 0 22 9 30 20 8 11 22 20 31 20 10 0
19 3 21 8 4 9 126 82 139 82 5 0 9 5 9 10 0 6 9 10 20 10 11 0 20 5 20 10 0 6
9 10 19 10 11 0 21 3 23 8 2 4 26 18 53 32 28 14 55 29 60 33 18 14 127 77
134 77 4 0 13 9 21 20 8 11 21 20 30 20 9 0 22 9 30 20 8 11 18 20 22 20 13 0
56 39 175 159 62 62 113 118 113 123 0 5 14 23 30 38 17 15 30 35 30 44 0 9 4
16 9 16 5 0 21 25 37 55 16 30 32 55 37 55 4 0 7 9 7 20 0 11 5 20 10 20 6 0
10 9 10 20 0 11 5 20 10 20 6 0 10 9 10 20 0 11 5 20 10 20 6 0 10 11 10 24 0
13 3 26 8 28 7 3 38 91 60 173 41 150 65 347 60 489 -3 101 -20 124 -38 54z"/>
<path d="M165 5528 c3 -13 10 -72 16 -133 15 -170 20 -205 30 -205 5 0 9 -13
9 -30 0 -16 5 -30 10 -30 6 0 10 -13 10 -30 0 -16 5 -30 10 -30 6 0 10 -11 10
-25 0 -14 5 -25 10 -25 6 0 10 -7 10 -15 0 -16 27 -76 39 -85 10 -8 42 -63 48
-82 3 -10 9 -18 14 -18 5 0 9 -5 9 -11 0 -6 13 -24 30 -39 16 -15 30 -32 30
-37 0 -19 196 -193 217 -193 7 0 13 -4 13 -10 0 -5 7 -10 15 -10 8 0 15 -4 15
-8 0 -7 81 -47 150 -75 14 -5 33 -13 42 -18 10 -5 31 -9 48 -9 16 0 30 -4 30
-10 0 -5 18 -10 40 -10 22 0 40 -4 40 -10 0 -5 12 -10 27 -10 15 0 40 -4 57
-9 17 -5 51 -15 76 -22 84 -22 196 -62 206 -72 4 -4 16 -7 26 -7 10 0 18 -4
18 -10 0 -5 9 -10 20 -10 11 0 20 -4 20 -10 0 -5 9 -10 20 -10 11 0 20 -4 20
-10 0 -5 9 -10 20 -10 11 0 20 -4 20 -10 0 -5 7 -10 15 -10 8 0 15 -4 15 -10
0 -5 7 -10 15 -10 9 0 21 -5 28 -10 45 -38 61 -50 67 -50 4 0 16 -8 28 -17 54
-47 63 -53 72 -53 6 0 10 -4 10 -10 0 -5 5 -10 11 -10 6 0 23 -13 37 -28 30
-31 88 -72 81 -57 -20 45 -44 85 -51 85 -4 0 -8 9 -8 20 0 11 -4 20 -10 20 -5
0 -10 9 -10 20 0 11 -4 20 -10 20 -5 0 -10 7 -10 15 0 8 -4 15 -10 15 -5 0
-10 6 -10 13 0 6 -11 26 -25 42 -36 44 -38 47 -65 85 -13 19 -32 42 -42 51
-10 9 -18 19 -18 23 0 9 -78 85 -144 141 -26 22 -58 50 -71 63 -13 12 -29 22
-35 22 -5 0 -10 5 -10 10 0 6 -6 10 -13 10 -7 0 -23 9 -35 20 -12 11 -28 20
-36 20 -8 0 -16 4 -18 8 -6 15 -203 121 -225 122 -7 0 -13 5 -13 10 0 6 -9 10
-20 10 -11 0 -20 5 -20 10 0 6 -9 10 -20 10 -11 0 -20 5 -20 10 0 6 -7 10 -15
10 -9 0 -21 5 -28 10 -20 17 -129 80 -138 80 -5 0 -9 5 -9 10 0 6 -7 10 -15
10 -8 0 -15 5 -15 10 0 6 -7 10 -15 10 -8 0 -15 4 -15 8 0 5 -12 15 -27 23
-16 8 -30 16 -33 19 -3 3 -23 18 -45 35 -22 16 -57 46 -77 67 -20 21 -39 38
-43 38 -14 0 -155 138 -155 152 0 5 -17 26 -38 46 -21 20 -51 55 -67 77 -17
22 -32 42 -35 45 -3 3 -11 17 -19 33 -8 15 -18 27 -23 27 -4 0 -8 9 -8 20 0
13 -7 20 -20 20 -16 0 -19 -5 -15 -22z"/>
<path d="M8242 5535 c-6 -8 -17 -26 -24 -40 -6 -14 -15 -25 -20 -25 -4 0 -8
-7 -8 -15 0 -8 -4 -15 -10 -15 -5 0 -10 -5 -10 -11 0 -6 -6 -16 -12 -24 -7 -7
-26 -29 -43 -50 -24 -29 -120 -134 -162 -178 -34 -34 -107 -97 -113 -97 -4 0
-21 -12 -38 -27 -56 -53 -82 -73 -92 -73 -6 0 -10 -4 -10 -10 0 -5 -7 -10 -15
-10 -8 0 -15 -4 -15 -10 0 -5 -7 -10 -15 -10 -8 0 -15 -4 -15 -10 0 -5 -9 -10
-20 -10 -11 0 -20 -4 -20 -8 0 -5 -21 -21 -47 -36 -27 -15 -68 -40 -93 -56
-25 -16 -53 -29 -62 -29 -10 -1 -18 -5 -18 -11 0 -5 -9 -10 -20 -10 -11 0 -20
-4 -20 -10 0 -5 -9 -10 -20 -10 -11 0 -20 -4 -20 -10 0 -5 -9 -10 -20 -10 -11
0 -20 -4 -20 -10 0 -5 -9 -10 -20 -10 -11 0 -20 -3 -20 -7 0 -5 -20 -16 -45
-26 -25 -11 -45 -23 -45 -28 0 -5 -8 -9 -18 -9 -10 0 -24 -9 -32 -20 -8 -11
-22 -20 -32 -20 -10 0 -18 -4 -18 -10 0 -5 -7 -10 -15 -10 -8 0 -15 -4 -15 -8
0 -4 -13 -15 -28 -24 -59 -35 -282 -252 -282 -274 0 -3 -11 -16 -25 -30 -14
-14 -25 -29 -25 -34 0 -5 -6 -15 -13 -22 -20 -21 -67 -97 -67 -108 0 -5 -4
-10 -10 -10 -5 0 -10 -8 -10 -18 0 -10 -9 -24 -20 -32 -11 -8 -20 -22 -20 -32
0 -10 -4 -18 -10 -18 -5 0 -10 -12 -10 -27 l0 -27 34 37 c18 20 38 37 42 37 5
0 21 10 36 23 59 50 67 56 90 68 12 7 28 17 35 23 25 22 39 31 68 46 17 8 32
17 35 20 12 12 51 30 64 30 8 0 16 4 18 8 5 12 164 86 228 107 30 10 65 21 78
26 13 5 38 9 57 9 19 0 35 5 35 10 0 6 20 10 45 10 25 0 45 5 45 10 0 6 18 10
40 10 22 0 40 5 40 10 0 6 14 10 30 10 17 0 30 5 30 10 0 6 8 10 17 10 19 0
83 21 98 33 18 14 127 77 134 77 4 0 13 9 21 20 8 11 20 20 28 20 17 0 192
175 192 192 0 8 9 20 20 28 11 8 20 18 20 22 0 11 53 92 63 96 4 2 7 12 7 23
0 10 5 19 10 19 6 0 10 9 10 20 0 11 5 20 10 20 6 0 10 11 10 25 0 14 5 25 10
25 6 0 10 14 10 30 0 17 5 30 10 30 6 0 10 11 10 24 0 14 5 28 10 31 6 3 10
22 10 41 0 19 4 42 9 52 22 43 43 293 24 292 -5 -1 -14 -7 -21 -15z"/>
<path d="M120 4841 c0 -11 53 -148 71 -183 5 -10 9 -27 9 -38 0 -11 5 -20 10
-20 6 0 10 -9 10 -20 0 -11 5 -20 10 -20 6 0 10 -9 10 -20 0 -11 5 -20 10 -20
6 0 10 -9 10 -20 0 -11 4 -20 8 -20 4 0 13 -15 20 -34 7 -18 23 -46 37 -62 14
-16 25 -35 25 -41 0 -7 5 -13 10 -13 6 0 10 -7 10 -15 0 -8 5 -15 10 -15 6 0
10 -7 10 -15 0 -8 5 -15 10 -15 6 0 10 -5 10 -10 0 -6 10 -21 23 -34 12 -13
45 -49 72 -81 90 -102 103 -115 114 -115 6 0 11 -4 11 -10 0 -5 7 -10 15 -10
8 0 15 -4 15 -10 0 -5 6 -10 14 -10 8 0 16 -4 18 -9 4 -11 114 -81 128 -81 5
0 10 -4 10 -10 0 -5 9 -10 20 -10 11 0 20 -4 20 -10 0 -5 11 -10 25 -10 14 0
25 -4 25 -10 0 -5 14 -10 30 -10 17 0 30 -4 30 -10 0 -5 14 -10 30 -10 17 0
30 -4 30 -10 0 -5 20 -10 45 -10 25 0 45 -4 45 -9 0 -5 15 -11 33 -13 17 -3
93 -15 167 -27 230 -36 267 -41 319 -41 28 0 51 -4 51 -10 0 -5 23 -10 50 -10
28 0 50 -4 50 -10 0 -5 16 -10 35 -10 19 0 35 -4 35 -10 0 -5 11 -10 25 -10
14 0 25 -4 25 -10 0 -5 11 -10 25 -10 14 0 25 -4 25 -8 0 -5 16 -14 35 -22 19
-8 35 -17 35 -20 0 -9 51 -32 58 -25 3 2 -5 13 -16 24 -12 10 -22 24 -22 31 0
7 -8 20 -18 29 -9 9 -29 32 -43 51 -37 50 -164 178 -224 225 -27 22 -57 48
-66 57 -9 10 -24 18 -33 18 -9 0 -16 5 -16 10 0 6 -6 10 -14 10 -8 0 -16 3
-18 8 -4 10 -87 52 -104 52 -8 0 -14 4 -14 8 0 4 -26 16 -57 27 -32 10 -62 22
-68 26 -9 6 -38 13 -112 26 -18 3 -33 9 -33 14 0 5 -16 9 -35 9 -19 0 -35 5
-35 10 0 6 -18 10 -40 10 -22 0 -40 5 -40 10 0 6 -13 10 -30 10 -16 0 -30 5
-30 10 0 6 -9 10 -19 10 -22 0 -219 81 -269 110 -18 11 -40 20 -48 20 -8 0
-14 5 -14 10 0 6 -9 10 -20 10 -11 0 -20 5 -20 10 0 6 -6 10 -13 10 -7 0 -23
9 -35 20 -12 11 -28 20 -37 20 -8 0 -15 4 -15 9 0 5 -8 12 -17 15 -10 3 -34
19 -53 36 -19 16 -39 30 -43 30 -5 0 -22 14 -37 30 -15 17 -32 30 -37 30 -10
0 -133 124 -133 134 0 5 -13 21 -30 36 -17 15 -30 32 -30 37 0 5 -9 16 -20 26
-11 9 -20 13 -20 8z"/>
<path d="M8270 4799 c-42 -61 -194 -219 -210 -219 -7 0 -25 -13 -40 -30 -15
-16 -31 -30 -35 -30 -3 0 -35 -20 -69 -45 -35 -25 -69 -45 -75 -45 -6 0 -11
-4 -11 -10 0 -5 -9 -10 -20 -10 -11 0 -20 -4 -20 -10 0 -5 -9 -10 -19 -10 -11
0 -21 -4 -23 -8 -4 -10 -189 -99 -239 -115 -21 -6 -39 -15 -39 -19 0 -5 -13
-8 -30 -8 -16 0 -30 -4 -30 -10 0 -5 -16 -10 -35 -10 -19 0 -35 -4 -35 -10 0
-5 -19 -10 -42 -10 -32 0 -39 -3 -28 -10 11 -7 4 -10 -27 -10 -23 0 -45 -4
-48 -10 -3 -5 -16 -10 -28 -10 -12 0 -67 -16 -122 -36 -55 -20 -115 -41 -132
-48 -18 -6 -33 -14 -33 -18 0 -5 -9 -8 -20 -8 -11 0 -20 -4 -20 -10 0 -5 -7
-10 -15 -10 -8 0 -15 -4 -15 -10 0 -5 -7 -10 -15 -10 -9 0 -27 -11 -41 -25
-14 -14 -29 -25 -33 -25 -4 0 -19 -9 -32 -21 -13 -11 -44 -37 -67 -57 -70 -59
-102 -90 -102 -96 0 -4 -15 -22 -32 -40 -65 -67 -98 -107 -98 -119 0 -7 -9
-19 -20 -27 -11 -8 -20 -20 -20 -26 0 -7 -6 -15 -12 -17 -7 -3 -3 -6 10 -6 12
-1 22 3 22 7 0 5 21 20 48 33 26 13 49 27 50 32 2 4 15 7 28 7 13 0 24 5 24
10 0 6 9 10 19 10 11 0 23 5 26 10 3 6 19 10 34 10 15 0 31 4 37 9 5 5 29 12
54 15 25 3 77 9 115 14 39 6 126 17 195 26 69 9 150 21 180 27 30 6 72 13 93
16 20 3 40 9 43 14 3 5 23 9 45 9 21 0 39 5 39 10 0 6 16 10 35 10 19 0 35 5
35 10 0 6 11 10 25 10 14 0 25 5 25 10 0 6 6 10 13 10 30 0 182 87 231 132 11
10 24 18 28 18 14 0 208 198 208 212 0 8 9 20 20 28 11 8 20 18 20 23 0 4 9
17 20 29 11 12 20 28 20 35 0 7 4 13 8 13 5 0 17 18 27 40 10 22 21 40 25 40
3 0 12 16 20 35 8 19 17 35 22 35 4 0 8 9 8 20 0 11 5 20 10 20 6 0 10 9 10
19 0 11 5 23 10 26 6 3 10 17 10 31 0 13 5 24 10 24 6 0 10 7 10 15 0 8 4 23
9 33 16 30 61 143 61 153 0 20 -17 6 -50 -42z"/>
<path d="M438 3928 c7 -7 12 -20 12 -30 0 -10 4 -18 8 -18 5 0 17 -18 27 -40
10 -22 21 -40 24 -40 4 0 17 -18 31 -40 14 -22 28 -40 32 -40 5 0 8 -5 8 -11
0 -12 102 -114 144 -144 16 -11 39 -30 52 -42 13 -13 30 -23 39 -23 8 0 15 -4
15 -10 0 -5 7 -10 15 -10 8 0 15 -4 15 -10 0 -5 9 -10 20 -10 11 0 20 -4 20
-10 0 -5 9 -10 20 -10 11 0 20 -4 20 -10 0 -5 14 -10 30 -10 17 0 30 -4 30 -9
0 -5 12 -11 28 -14 15 -4 56 -13 92 -22 91 -21 231 -35 475 -46 372 -18 410
-20 420 -30 5 -5 33 -9 62 -9 29 0 53 -4 53 -10 0 -5 9 -10 20 -10 34 0 31 5
-55 75 -16 14 -43 36 -60 50 -16 14 -36 25 -42 25 -7 0 -13 5 -13 10 0 6 -7
10 -15 10 -8 0 -15 5 -15 10 0 6 -9 10 -20 10 -11 0 -20 5 -20 10 0 6 -9 10
-19 10 -11 0 -21 4 -23 8 -7 17 -183 92 -236 99 -18 3 -35 9 -38 14 -3 5 -23
9 -45 9 -21 0 -39 5 -39 10 0 6 -28 10 -65 10 -37 0 -65 4 -65 10 0 6 -33 10
-78 10 -43 0 -82 4 -88 9 -9 9 -46 14 -176 27 -32 3 -58 10 -58 15 0 5 -10 9
-22 9 -22 0 -220 63 -250 80 -10 6 -25 10 -33 10 -8 0 -15 5 -15 10 0 6 -9 10
-20 10 -11 0 -20 5 -20 10 0 6 -9 10 -20 10 -11 0 -20 5 -20 10 0 6 -9 10 -19
10 -11 0 -21 3 -23 8 -5 11 -91 72 -102 72 -6 0 -5 -5 2 -12z"/>
<path d="M7974 3927 c-22 -23 -54 -47 -64 -47 -6 0 -10 -4 -10 -10 0 -5 -7
-10 -15 -10 -8 0 -15 -4 -15 -10 0 -5 -9 -10 -20 -10 -11 0 -20 -4 -20 -10 0
-5 -11 -10 -25 -10 -14 0 -25 -4 -25 -10 0 -5 -11 -10 -25 -10 -14 0 -25 -4
-25 -10 0 -5 -11 -10 -25 -10 -14 0 -25 -4 -25 -10 0 -5 -13 -10 -29 -10 -16
0 -31 -4 -33 -8 -8 -20 -218 -69 -335 -79 -35 -2 -63 -9 -63 -14 0 -5 -38 -9
-85 -9 -50 0 -85 -4 -85 -10 0 -5 -25 -10 -55 -10 -30 0 -55 -4 -55 -9 0 -5
-19 -11 -42 -14 -52 -6 -96 -16 -123 -27 -11 -4 -40 -15 -65 -25 -25 -9 -53
-21 -62 -26 -10 -5 -25 -9 -33 -9 -8 0 -15 -4 -15 -10 0 -5 -9 -10 -20 -10
-11 0 -20 -4 -20 -10 0 -5 -9 -10 -20 -10 -11 0 -20 -4 -20 -10 0 -5 -7 -10
-16 -10 -9 0 -24 -8 -33 -17 -9 -10 -28 -25 -42 -33 -53 -30 -159 -120 -159
-134 0 -3 9 -6 20 -6 11 0 20 5 20 10 0 6 26 10 58 10 32 0 62 4 67 9 10 10
31 11 405 30 248 12 379 24 455 40 75 16 195 55 195 64 0 4 11 7 25 7 14 0 25
5 25 10 0 6 9 10 20 10 11 0 20 5 20 10 0 6 6 10 13 10 6 0 25 11 41 25 16 14
33 25 37 25 9 0 188 177 222 219 10 12 25 38 34 57 9 19 20 34 25 34 4 0 8 6
8 13 0 7 9 23 20 35 20 21 27 52 13 52 -5 -1 -13 -6 -19 -13z"/>
<path d="M1450 3002 c-67 -25 -110 -54 -110 -74 0 -10 -4 -18 -10 -18 -5 0
-10 -16 -10 -35 0 -19 5 -35 10 -35 6 0 10 -8 10 -17 0 -22 67 -83 91 -83 11
0 19 -4 19 -10 0 -6 38 -10 95 -10 57 0 95 4 95 10 0 6 10 10 23 10 21 0 82
19 102 31 32 20 226 57 420 80 122 14 155 21 155 30 0 5 -16 9 -35 9 -19 0
-35 5 -35 10 0 6 -13 10 -30 10 -16 0 -30 5 -30 10 0 6 -15 10 -34 10 -19 0
-38 5 -41 10 -3 6 -21 10 -40 10 -18 0 -35 4 -37 8 -1 5 -73 20 -158 35 -187
33 -375 36 -450 9z"/>
<path d="M6625 3009 c-143 -23 -241 -43 -249 -51 -6 -4 -22 -8 -37 -8 -15 0
-31 -4 -34 -10 -3 -5 -21 -10 -40 -10 -19 0 -37 -4 -40 -10 -3 -5 -19 -10 -36
-10 -16 0 -29 -4 -29 -10 0 -5 -13 -10 -30 -10 -47 0 -35 -17 18 -24 366 -48
466 -66 524 -97 10 -5 27 -9 38 -9 11 0 20 -4 20 -10 0 -5 13 -10 29 -10 17 0
33 -4 36 -10 3 -6 48 -10 101 -10 56 0 94 4 94 10 0 6 9 10 20 10 11 0 20 5
20 10 0 6 9 10 20 10 11 0 20 7 20 15 0 8 5 15 10 15 6 0 10 7 10 15 0 8 5 15
10 15 6 0 10 23 10 51 0 44 -4 55 -30 79 -57 53 -124 70 -273 69 -73 -1 -154
-5 -182 -10z"/>
<path d="M2040 2710 c0 -6 -26 -10 -59 -10 -33 0 -63 -4 -66 -10 -3 -5 -17
-10 -30 -10 -43 0 -165 -57 -165 -77 0 -7 -4 -13 -10 -13 -5 0 -10 -20 -10
-45 0 -81 84 -146 168 -130 61 11 135 52 192 105 29 27 59 50 67 50 7 0 13 4
13 8 0 12 87 56 140 71 25 7 53 17 62 22 10 5 31 9 48 9 16 0 30 5 30 10 0 6
20 10 45 10 25 0 45 5 45 10 0 6 -85 10 -235 10 -150 0 -235 -4 -235 -10z"/>
<path d="M5930 2710 c0 -5 18 -10 40 -10 22 0 40 -4 40 -10 0 -5 14 -10 30
-10 17 0 38 -4 48 -9 9 -5 37 -15 62 -22 64 -17 169 -77 210 -118 35 -36 44
-42 128 -89 54 -30 161 -35 187 -8 9 9 21 16 26 16 5 0 9 7 9 15 0 8 5 15 10
15 6 0 10 7 10 15 0 8 5 15 10 15 6 0 10 14 10 30 0 17 -4 30 -10 30 -5 0 -10
9 -10 20 0 11 -4 20 -9 20 -5 0 -16 6 -23 13 -7 6 -26 18 -43 26 -16 7 -38 17
-47 22 -10 5 -34 9 -53 9 -19 0 -35 5 -35 10 0 6 -28 10 -65 10 -37 0 -65 4
-65 10 0 6 -83 10 -230 10 -147 0 -230 -4 -230 -10z"/>
<path d="M2535 2594 c-144 -19 -174 -25 -181 -35 -3 -5 -16 -9 -30 -9 -13 0
-24 -4 -24 -10 0 -5 -10 -10 -23 -10 -12 0 -29 -9 -37 -20 -8 -11 -19 -20 -25
-20 -13 0 -54 -43 -78 -82 -27 -43 -22 -112 10 -148 14 -17 35 -30 45 -30 10
0 18 -4 18 -10 0 -14 66 -13 93 2 12 6 28 18 35 27 26 33 82 133 82 147 0 7 5
14 10 14 6 0 10 9 10 20 0 11 5 20 10 20 6 0 10 5 10 11 0 14 55 69 69 69 6 0
11 5 11 10 0 6 9 10 19 10 11 0 22 4 25 9 3 4 19 11 36 14 18 4 30 13 30 22 0
8 -3 14 -7 14 -5 -1 -53 -8 -108 -15z"/>
<path d="M5780 2605 c0 -14 29 -35 49 -35 11 0 23 -4 26 -10 3 -5 15 -10 26
-10 10 0 19 -4 19 -10 0 -5 5 -10 10 -10 14 0 60 -46 60 -60 0 -5 5 -10 10
-10 6 0 10 -9 10 -20 0 -11 3 -20 8 -20 8 0 32 -49 32 -67 0 -7 4 -13 8 -13 5
0 17 -17 26 -38 10 -21 27 -45 38 -53 11 -8 26 -20 34 -26 25 -25 101 -11 147
27 31 26 50 76 38 99 -6 11 -11 29 -11 40 0 25 -89 121 -113 121 -9 0 -17 5
-17 10 0 6 -9 10 -20 10 -11 0 -20 5 -20 10 0 6 -13 10 -30 10 -16 0 -30 4
-30 9 0 9 -23 14 -150 30 -41 5 -92 12 -112 16 -21 4 -38 4 -38 0z"/>
</g>
</svg>
