<?xml version="1.0" standalone="no"?>
<!DOCTYPE svg PUBLIC "-//W3C//DTD SVG 20010904//EN"
 "http://www.w3.org/TR/2001/REC-SVG-20010904/DTD/svg10.dtd">
<svg version="1.0" xmlns="http://www.w3.org/2000/svg"
 width="320.000000pt" height="204.000000pt" viewBox="0 0 320.000000 204.000000"
 preserveAspectRatio="xMidYMid meet">

<g transform="translate(0.000000,204.000000) scale(0.100000,-0.100000)"
fill="#000000" stroke="none">
<path d="M1935 1820 c-4 -6 13 -10 43 -10 146 0 377 -103 482 -215 l35 -37
-55 41 c-78 59 -181 107 -285 132 -75 18 -109 20 -205 16 -181 -9 -191 -22
-17 -22 140 -1 158 -3 232 -28 81 -29 199 -89 211 -108 3 -6 -16 1 -43 14
-186 95 -424 102 -615 19 -32 -13 -57 -26 -56 -28 2 -1 37 9 78 24 60 20 100
26 195 29 66 3 138 0 160 -5 36 -9 30 -10 -50 -11 -49 -1 -119 -8 -155 -17
-80 -18 -213 -82 -260 -124 -31 -28 -32 -30 -5 -12 59 38 152 81 216 98 69 19
270 24 321 8 19 -6 -5 -9 -80 -10 -182 -1 -320 -56 -446 -177 -65 -64 -66 -65
-11 -17 131 112 292 166 469 157 96 -4 232 -39 258 -65 5 -5 -17 0 -49 11 -80
28 -256 35 -344 13 -111 -28 -206 -82 -289 -166 -41 -42 -86 -96 -99 -121 -27
-51 -21 -46 38 34 89 118 248 206 411 228 83 11 145 7 75 -5 -114 -19 -153
-31 -224 -67 -45 -22 -102 -61 -134 -92 -53 -51 -137 -168 -137 -191 0 -6 18
17 41 51 149 229 451 323 713 223 16 -6 27 -13 24 -15 -3 -3 -25 2 -49 11 -71
27 -246 25 -331 -4 -89 -31 -171 -85 -240 -160 -51 -56 -118 -170 -118 -203 0
-6 14 17 32 52 44 90 161 206 251 248 264 126 547 48 733 -203 24 -32 44 -63
44 -70 0 -8 -2 -8 -8 1 -4 6 -7 -46 -8 -115 0 -117 -3 -134 -31 -208 -37 -99
-82 -170 -158 -252 -60 -65 -184 -153 -270 -191 -33 -15 -40 -20 -20 -16 56
11 191 83 263 140 94 73 162 159 217 270 67 134 80 195 79 360 0 132 -2 146
-34 239 -56 164 -163 307 -304 405 -124 85 -226 123 -381 141 -110 12 -103 12
-110 0z"/>
<path d="M1858 1813 c6 -2 18 -2 25 0 6 3 1 5 -13 5 -14 0 -19 -2 -12 -5z"/>
<path d="M875 533 c-16 -2 -129 -15 -250 -28 -163 -18 -243 -32 -310 -53 l-90
-28 69 -7 c43 -4 120 0 205 10 165 19 450 22 547 5 59 -10 162 -36 259 -67 16
-5 15 -3 -4 12 -57 42 -66 55 -21 30 63 -35 165 -77 198 -81 15 -2 65 -14 112
-26 73 -20 102 -22 220 -18 118 5 280 31 267 45 -2 2 -47 10 -100 18 -61 9
-174 41 -318 89 -279 94 -349 106 -578 105 -97 -1 -189 -4 -206 -6z"/>
<path d="M2615 373 c-68 -10 -152 -36 -277 -89 -197 -83 -256 -97 -423 -97
-80 0 -190 7 -255 16 -73 11 -131 14 -159 9 l-44 -7 79 -28 c168 -60 621 -100
769 -68 33 7 143 46 245 86 189 75 293 102 360 90 26 -4 13 5 -49 35 -71 35
-171 63 -206 58 -5 0 -23 -3 -40 -5z"/>
</g>
</svg>
